<svg width="512" height="512" viewBox="0 0 512 512" fill="none" xmlns="http://www.w3.org/2000/svg">
<rect width="512" height="512" rx="114" fill="url(#altrettaBg)"/>
<g transform="translate(256 256) scale(1.72) translate(-257 -247.5)">
<path d="M245.748 188.171H306.847L316.745 174.859C316.745 174.859 317.371 175.371 318.623 176.395C319.874 177.305 321.467 178.556 323.401 180.149C325.336 181.742 327.327 183.449 329.375 185.269C331.536 187.09 333.414 188.74 335.007 190.219C334.665 192.039 333.129 192.949 330.399 192.949H246.943L245.748 188.171ZM237.556 317.877H309.236L319.647 304.053C319.647 304.053 320.272 304.565 321.524 305.589C322.776 306.613 324.368 307.979 326.303 309.685C328.237 311.278 330.285 312.985 332.447 314.805C334.608 316.626 336.486 318.389 338.079 320.096C337.737 321.916 336.201 322.827 333.471 322.827H238.921L237.556 317.877ZM281.247 188.171H300.361V320.949H281.247V188.171ZM290.633 247.221H307.871L317.257 233.568C317.257 233.568 317.826 234.08 318.964 235.104C320.102 236.128 321.524 237.436 323.231 239.029C325.051 240.622 326.928 242.386 328.863 244.32C330.797 246.14 332.504 247.79 333.983 249.269C333.528 251.09 331.992 252 329.375 252H290.633V247.221ZM249.844 222.987L273.396 225.205C273.282 226.343 272.827 227.31 272.031 228.107C271.234 228.789 269.812 229.301 267.764 229.643V319.755H249.844V222.987ZM184.479 183.733H213.492L222.367 172.128C222.367 172.128 223.277 172.868 225.097 174.347C226.918 175.826 229.08 177.646 231.583 179.808C234.2 181.97 236.475 183.961 238.409 185.781C237.954 187.602 236.475 188.512 233.972 188.512H185.844L184.479 183.733ZM183.967 227.424H214.857L223.391 216.16C223.391 216.16 224.244 216.9 225.951 218.379C227.771 219.858 229.876 221.621 232.265 223.669C234.655 225.717 236.816 227.708 238.751 229.643C238.409 231.349 236.93 232.203 234.313 232.203H185.332L183.967 227.424ZM183.967 249.611H214.857L223.391 238.347C223.391 238.347 224.244 239.086 225.951 240.565C227.771 242.044 229.876 243.808 232.265 245.856C234.655 247.904 236.816 249.895 238.751 251.829C238.409 253.536 236.93 254.389 234.313 254.389H185.332L183.967 249.611ZM175.945 205.237H222.196L231.071 193.632C231.071 193.632 231.981 194.372 233.801 195.851C235.622 197.33 237.784 199.15 240.287 201.312C242.904 203.474 245.236 205.522 247.284 207.456C246.829 209.276 245.293 210.187 242.676 210.187H177.311L175.945 205.237ZM183.967 272.651V265.312L202.399 272.651H227.999V277.6H201.716V325.557C201.716 326.012 200.976 326.695 199.497 327.605C198.018 328.516 196.141 329.312 193.865 329.995C191.59 330.791 189.144 331.189 186.527 331.189H183.967V272.651ZM217.929 272.651H216.393L224.585 263.776L242.164 277.088C241.595 277.657 240.742 278.283 239.604 278.965C238.58 279.534 237.272 279.932 235.679 280.16V319.584C235.679 320.039 234.825 320.665 233.119 321.461C231.526 322.258 229.592 322.997 227.316 323.68C225.154 324.363 222.992 324.704 220.831 324.704H217.929V272.651ZM193.012 309.685H227.657V314.635H193.012V309.685Z" fill="#FFFFFF"/>
</g>
<defs>
<linearGradient id="altrettaBg" x1="64" y1="40" x2="448" y2="472" gradientUnits="userSpaceOnUse">
<stop stop-color="#6366F1"/>
<stop offset="1" stop-color="#22D3EE"/>
</linearGradient>
</defs>
</svg>
